# xmcd
#
# Track frame offsets:
#	150
#	4265
#	6487
#	10915
#	14040
#	18177
#	22715
#	25400
#	28580
#	32652
#	36037
#	39020
#	41280
#	45197
#	47772
#	52515
#	54980
#	57462
#	59767
#	64197
#	67767
#	71782
#	74755
#	77600
#	80745
#	87340
#	91980
#	94772
#	98822
#	103515
#	107462
#	113695
#	116637
#	121467
#	126402
#	131370
#	136042
#	140172
#	149022
#	158255
#	164945
#	169350
#	174517
#	178652
#	185260
#	189980
#	195612
#	202842
#	207560
#	210852
#	218410
#	226820
#	235200
#	238855
#	247067
#	256240
#	261905
#	266040
#	273227
#	277227
#	283162
#	290247
#	292812
#	295320
#	298517
#	305252
#	310222
#	316517
#	323927
#	327245
#	331780
#	339617
#
# Disc length: 4632 seconds
#
# Revision: 3
# Processed by: cddbd v1.5.2PL0 Copyright (c) Steve Scherf et al.
# Submitted via: audiograbber 1.83.01
#
DISCID=1a121648
DTITLE=Richards, Tim - Blues Piano
DYEAR=2004
DGENRE=Blues
TTITLE0=Beginner's Blues
TTITLE1=mit Onbeat-Offbeat Akkorden, Bsp. 1.8
TTITLE2=Beginner's Blues (melodisch)
TTITLE3=mit Variationen der linken Hand, Bsp. 1.12 (b)
TTITLE4=Beginner's Boogie
TTITLE5=gebrochene Oktaven in d. linken Hand, Bsp. 1.15
TTITLE6=Blue Third Blues
TTITLE7=New Orleans Triplets Workout
TTITLE8=Blueberry Hill (Teil 1, Play-Along))
TTITLE9=Five - Finger Blues
TTITLE10=Trill Blues
TTITLE11=On-off Boogie
TTITLE12=Happy Blues
TTITLE13=Sad Blues
TTITLE14=Blues for Booker
TTITLE15=Turnaround-Übung d. linken Hand, Bsp. 1.48)
TTITLE16=Sixth Blues (gerade Achtel)
TTITLE17=Sixth Blues (Triolen-Feeling)
TTITLE18=Jump Shuffle
TTITLE19=C Jam Blues
TTITLE20=Riff Blues
TTITLE21=Sunday Afternoon Blues
TTITLE22=I-IV-Barrelhouse-Übung, Bsp. 2.19 (a)
TTITLE23=I-V-Barrelhouse-Übung, Bsp. 2.19 (b)
TTITLE24=Barrelhouse Blues
TTITLE25=Blues with Pick-Ups
TTITLE26=Slow Blues in D
TTITLE27=Blue Fifth Boogie
TTITLE28=Syncopated Boogie
TTITLE29=Back in the Alley
TTITLE30=Seventh Blues
TTITLE31=Blues for Sal
TTITLE32=See See Rider
TTITLE33=Smooth Blues
TTITLE34=Blues in Thirds
TTITLE35=Bouncy Boogie
TTITLE36=On-off Boogie No.2
TTITLE37=Blue Monk
TTITLE38=Slow Blues in G
TTITLE39=Pseudo-Stride d. linken Hand (Play-Along)
TTITLE40=Tritone Blues
TTITLE41=Tritone Blues Begleitung (Play-Along)
TTITLE42=Got my Mojo Workin'
TTITLE43=E Blues Scale Workout 
TTITLE44=Ninth Blues
TTITLE45=Slow Guitar Blues
TTITLE46=Mary Ann
TTITLE47=Rolling Blues
TTITLE48=mit Variationen für d. linke Hand, Bsp. 4.22
TTITLE49=Pine Top's Boogie Woogie
TTITLE50=Bag's Groove
TTITLE51=F Blues Scale Workout
TTITLE52=Comping Blues
TTITLE53=Down Home Funk
TTITLE54=The Other Side
TTITLE55=Ain't No Sunshine
TTITLE56=Medium Jump
TTITLE57=Blueberry Hill
TTITLE58=How Long Blues
TTITLE59=Just a Closer Walk With Thee
TTITLE60=St Louis Blues
TTITLE61=rechte Hand Fills (Play-Along). Bsp. 5.26
TTITLE62=rechte Hand Fills (Play-Along). Bsp. 5.27
TTITLE63=G-Dur Pentatonik, (Play-Along), Bsp. 5.29
TTITLE64=Slow 12-8 Blues
TTITLE65=Four Finger Blues
TTITLE66=C Jam Blues (zweite Version)
TTITLE67=Blues in Three
TTITLE68=Minor Blues Workout
TTITLE69=Rockaboogie
TTITLE70=Back Street Blues
TTITLE71=Honky Tonk Train Blues
EXTD=Tim Richards (piano]\nProduced by Wendy Lampa\nSound Engineering by Dill K
EXTD=atz, The Premises\nDi
EXTT0=
EXTT1=
EXTT2=
EXTT3=
EXTT4=
EXTT5=
EXTT6=
EXTT7=
EXTT8=
EXTT9=
EXTT10=
EXTT11=
EXTT12=
EXTT13=
EXTT14=
EXTT15=
EXTT16=
EXTT17=
EXTT18=
EXTT19=
EXTT20=
EXTT21=
EXTT22=
EXTT23=
EXTT24=
EXTT25=
EXTT26=
EXTT27=
EXTT28=
EXTT29=
EXTT30=
EXTT31=
EXTT32=
EXTT33=
EXTT34=
EXTT35=
EXTT36=
EXTT37=
EXTT38=
EXTT39=
EXTT40=
EXTT41=
EXTT42=
EXTT43=
EXTT44=
EXTT45=
EXTT46=
EXTT47=
EXTT48=
EXTT49=
EXTT50=
EXTT51=
EXTT52=
EXTT53=
EXTT54=
EXTT55=
EXTT56=
EXTT57=
EXTT58=
EXTT59=
EXTT60=
EXTT61=
EXTT62=
EXTT63=
EXTT64=
EXTT65=
EXTT66=
EXTT67=
EXTT68=
EXTT69=
EXTT70=
EXTT71=
PLAYORDER=
